<?xml version="1.0"?>
<svg xmlns="http://www.w3.org/2000/svg" xmlns:xlink="http://www.w3.org/1999/xlink" xmlns:svgjs="http://svgjs.com/svgjs" version="1.1" width="512" height="512" x="0" y="0" viewBox="0 0 512 512" style="enable-background:new 0 0 512 512" xml:space="preserve" class=""><g>
<path xmlns="http://www.w3.org/2000/svg" style="" d="M469.867,438.4V512H43.2c-23.467,0-42.667-19.2-42.667-42.667V42.667C0.533,19.2,19.733,0,43.2,0  h340.267c23.467,0,42.667,19.2,42.667,42.667v394.667h43.733V438.4z" fill="#ffffff" data-original="#e8eae9" class=""/>
<path xmlns="http://www.w3.org/2000/svg" style="" d="M426.133,125.867v343.467c0,23.467,19.2,42.667,42.667,42.667s42.667-19.2,42.667-42.667V125.867  H426.133z" fill="#ffffff" data-original="#ced6e0" class=""/>
<polygon xmlns="http://www.w3.org/2000/svg" style="" points="383.467,153.6 383.467,121.6 43.2,121.6 43.2,153.6 " fill="#000000" data-original="#adb3ba" class=""/>
<polygon xmlns="http://www.w3.org/2000/svg" style="" points="383.467,74.667 383.467,42.667 43.2,42.667 43.2,74.667 " fill="#000000" data-original="#f3705a" class=""/>
<g xmlns="http://www.w3.org/2000/svg">
	<polygon style="" points="383.467,390.4 383.467,358.4 43.2,358.4 43.2,390.4  " fill="#000000" data-original="#adb3ba" class=""/>
	<polygon style="" points="383.467,469.333 383.467,437.333 43.2,437.333 43.2,469.333  " fill="#000000" data-original="#adb3ba" class=""/>
</g>
<g xmlns="http://www.w3.org/2000/svg">
	<path style="" d="M218.133,224h12.8v40.533c0,5.333,0,9.6-1.067,12.8c-1.067,4.267-3.2,6.4-6.4,8.533   c-3.2,2.133-7.467,3.2-12.8,3.2c-6.4,0-11.733-2.133-14.933-5.333c-3.2-3.2-5.333-8.533-5.333-16l12.8-1.067   c0,3.2,1.067,6.4,2.133,7.467c1.067,2.133,3.2,3.2,6.4,3.2c3.2,0,5.333-1.067,6.4-2.133s2.133-5.333,2.133-10.667V224H218.133z" fill="#000000" data-original="#f05540" class=""/>
	<path style="" d="M242.667,256c0-6.4,1.067-11.733,3.2-17.067c1.067-3.2,3.2-6.4,6.4-8.533   c2.133-2.133,5.333-4.267,8.533-5.333c4.267-2.133,8.533-2.133,13.867-2.133c9.6,0,17.067,3.2,22.4,8.533   c5.333,6.4,8.533,13.867,8.533,24.533s-3.2,18.133-8.533,24.533c-5.333,6.4-12.8,8.533-22.4,8.533s-17.067-3.2-22.4-8.533   C245.867,275.2,242.667,266.667,242.667,256z M256.533,256c0,7.467,2.133,12.8,5.333,17.067s7.467,5.333,12.8,5.333   c5.333,0,9.6-2.133,12.8-5.333c3.2-4.267,5.333-9.6,5.333-17.067s-2.133-12.8-5.333-17.067c-3.2-3.2-7.467-5.333-12.8-5.333   c-5.333,0-9.6,2.133-12.8,5.333S256.533,248.533,256.533,256z" fill="#000000" data-original="#f05540" class=""/>
	<path style="" d="M315.2,224h26.667c5.333,0,8.533,0,11.733,1.067c2.133,0,4.267,1.067,6.4,3.2   c2.133,1.067,3.2,3.2,5.333,5.333c1.067,2.133,2.133,4.267,2.133,7.467c0,3.2-1.067,5.333-2.133,8.533   c-2.133,2.133-4.267,4.267-6.4,5.333c4.267,1.067,7.467,3.2,9.6,5.333c2.133,3.2,3.2,6.4,3.2,9.6s-1.067,5.333-2.133,8.533   c-1.067,3.2-3.2,5.333-5.333,6.4c-2.133,1.067-7.467,3.2-10.667,3.2c-2.133,0-7.467,0-16,0h-22.4L315.2,224L315.2,224z    M329.067,234.667V249.6h8.533c5.333,0,8.533,0,9.6,0c2.133,0,4.267-1.067,5.333-2.133s2.133-3.2,2.133-5.333   c0-2.133-1.067-3.2-2.133-5.333c-1.067-1.067-3.2-2.133-5.333-2.133c-1.067,0-5.333,0-10.667,0L329.067,234.667L329.067,234.667z    M329.067,260.267v17.067H340.8c4.267,0,7.467,0,8.533,0c2.133,0,3.2-1.067,4.267-2.133c1.067-1.067,2.133-3.2,2.133-5.333   s0-3.2-1.067-5.333c-1.067-2.133-2.133-2.133-4.267-3.2c-2.133-1.067-5.333-1.067-11.733-1.067H329.067z" fill="#000000" data-original="#f05540" class=""/>
</g>
<path xmlns="http://www.w3.org/2000/svg" style="" d="M173.333,146.133c-57.6,57.6-57.6,152.533,0,210.133s152.533,57.6,210.133,0s57.6-152.533,0-210.133  C324.8,88.533,230.933,88.533,173.333,146.133z M352.533,326.4c-40.533,40.533-107.733,40.533-148.267,0s-40.533-107.733,0-148.267  s107.733-40.533,148.267,0S393.067,284.8,352.533,326.4z" fill="#000000" data-original="#344a5e" class=""/>
<path xmlns="http://www.w3.org/2000/svg" style="" d="M418.667,341.333c0,3.2-1.067,5.333-3.2,7.467l-40.533,40.533c-4.267,4.267-11.733,4.267-16,0  c-2.133-2.133-3.2-5.333-3.2-7.467s1.067-5.333,3.2-7.467l40.533-40.533c4.267-4.267,11.733-4.267,16,0  C417.6,334.933,418.667,338.133,418.667,341.333z" fill="#000000" data-original="#415a6b" class=""/>
<path xmlns="http://www.w3.org/2000/svg" style="" d="M426.133,454.4c-9.6-29.867-52.267-32-51.2-65.067l40.533-40.533  c33.067-2.133,35.2,40.533,65.067,51.2c13.867,4.267,22.4,18.133,18.133,34.133c-5.333,17.067-21.333,33.067-38.4,38.4  C444.267,476.8,430.4,468.267,426.133,454.4z" fill="#000000" data-original="#66c6b9" class=""/>
<g xmlns="http://www.w3.org/2000/svg">
</g>
<g xmlns="http://www.w3.org/2000/svg">
</g>
<g xmlns="http://www.w3.org/2000/svg">
</g>
<g xmlns="http://www.w3.org/2000/svg">
</g>
<g xmlns="http://www.w3.org/2000/svg">
</g>
<g xmlns="http://www.w3.org/2000/svg">
</g>
<g xmlns="http://www.w3.org/2000/svg">
</g>
<g xmlns="http://www.w3.org/2000/svg">
</g>
<g xmlns="http://www.w3.org/2000/svg">
</g>
<g xmlns="http://www.w3.org/2000/svg">
</g>
<g xmlns="http://www.w3.org/2000/svg">
</g>
<g xmlns="http://www.w3.org/2000/svg">
</g>
<g xmlns="http://www.w3.org/2000/svg">
</g>
<g xmlns="http://www.w3.org/2000/svg">
</g>
<g xmlns="http://www.w3.org/2000/svg">
</g>
</g></svg>
