<?xml version="1.0" encoding="UTF-8"?>
<svg xmlns="http://www.w3.org/2000/svg" xmlns:xlink="http://www.w3.org/1999/xlink" width="24pt" height="24pt" viewBox="0 0 24 24" version="1.1">
<g id="surface1522784">
<path style=" stroke:none;fill-rule:nonzero;fill:rgb(45.098039%,71.372549%,42.352941%);fill-opacity:1;" d="M 20 0 C 17.789062 0 16 1.789062 16 4 C 16 4.277344 16.039062 4.550781 16.09375 4.8125 L 7 9.375 C 6.265625 8.535156 5.203125 8 4 8 C 1.789062 8 0 9.789062 0 12 C 0 14.210938 1.789062 16 4 16 C 5.203125 16 6.265625 15.464844 7 14.625 L 16.09375 19.1875 C 16.039062 19.449219 16 19.722656 16 20 C 16 22.210938 17.789062 24 20 24 C 22.210938 24 24 22.210938 24 20 C 24 17.789062 22.210938 16 20 16 C 18.796875 16 17.734375 16.535156 17 17.375 L 7.90625 12.8125 C 7.960938 12.550781 8 12.277344 8 12 C 8 11.722656 7.960938 11.449219 7.90625 11.1875 L 17 6.625 C 17.734375 7.464844 18.796875 8 20 8 C 22.210938 8 24 6.210938 24 4 C 24 1.789062 22.210938 0 20 0 Z M 20 0 "/>
</g>
</svg>
