<?xml version="1.0" encoding="UTF-8"?>
<svg xmlns="http://www.w3.org/2000/svg" xmlns:xlink="http://www.w3.org/1999/xlink" width="30pt" height="30pt" viewBox="0 0 30 30" version="1.1">
<g id="surface1773895">
<path style=" stroke:none;fill-rule:nonzero;fill:rgb(45.098039%,71.372549%,42.352941%);fill-opacity:1;" d="M 19.589844 3.011719 C 17.515625 2.929688 15.417969 3.675781 13.832031 5.261719 C 11.859375 7.234375 11.601562 9.597656 12.5 11.84375 L 4.171875 20.171875 C 2.609375 21.734375 2.609375 24.265625 4.171875 25.828125 C 5.734375 27.390625 8.265625 27.390625 9.828125 25.828125 L 18.15625 17.5 C 20.402344 18.398438 22.765625 18.140625 24.738281 16.167969 C 26.851562 14.054688 27.476562 11.027344 26.628906 8.367188 L 22 13 L 18 12 L 17 8 L 21.632812 3.371094 C 20.964844 3.15625 20.277344 3.035156 19.589844 3.011719 Z M 7 21 C 8.105469 21 9 21.894531 9 23 C 9 24.105469 8.105469 25 7 25 C 5.894531 25 5 24.105469 5 23 C 5 21.894531 5.894531 21 7 21 Z M 7 21 "/>
</g>
</svg>
