<svg xmlns="http://www.w3.org/2000/svg" height="24" width="24" style=""><rect id="backgroundrect" width="100%" height="100%" x="0" y="0" fill="none" stroke="none"/><g class="currentLayer" style=""><title>Layer 1</title><path d="M21.000000074505806,4 H11.000000074505806 l-1,-3 H3.000000074505806 c-1.1,0 -2,0.9 -2,2 v15 c0,1.1 0.9,2 2,2 h8 l1,3 h9 c1.1,0 2,-0.9 2,-2 V6 c0,-1.1 -0.9,-2 -2,-2 zM7.000000074505806,16 c-2.7600000000000002,0 -5,-2.24 -5,-5 s2.24,-5 5,-5 c1.35,0 2.48,0.5 3.35,1.3 L9.030000074505805,8.57 c-0.38000000000000017,-0.36000000000000015 -1.04,-0.78 -2.03,-0.78 c-1.7400000000000002,0 -3.15,1.44 -3.15,3.21 S5.260000074505806,14.21 7.000000074505806,14.21 c2.01,0 2.84,-1.44 2.92,-2.41 H7.000000074505806 v-1.71 h4.68 c0.07,0.31000000000000016 0.12000000000000002,0.6100000000000003 0.12000000000000002,1.02 C11.800000074505807,13.969999999999999 9.890000074505807,16 7.000000074505806,16 zm6.17,-5.42 h3.7 c-0.43000000000000016,1.25 -1.11,2.43 -2.05,3.47 c-0.31000000000000016,-0.35000000000000014 -0.6000000000000003,-0.7200000000000003 -0.8600000000000003,-1.1 l-0.79,-2.37 zm8.33,9.92 c0,0.55 -0.45,1 -1,1 H14.000000074505806 l2,-2.5 l-1.04,-3.1 l3.1,3.1 l0.92,-0.92 l-3.3,-3.25 l0.02000000000000001,-0.02000000000000001 c1.13,-1.25 1.9300000000000002,-2.6900000000000004 2.4,-4.22 H20.000000074505806 v-1.3 h-4.53 V8 h-1.29 v1.29 h-1.44 L11.460000074505807,5.5 h9.04 c0.55,0 1,0.45 1,1 v14 z" id="svg_1" class="" fill="#009900" fill-opacity="1"/><path d="M0.2448979616165161,1.2244898080825806 h24 v24 H0.2448979616165161 zm0,0 h24 v24 H0.2448979616165161 z" fill="none" id="svg_2" class=""/></g></svg>