<?xml version="1.0" encoding="utf-8"?>
<!-- Generator: Adobe Illustrator 17.0.0, SVG Export Plug-In . SVG Version: 6.00 Build 0)  -->
<!DOCTYPE svg PUBLIC "-//W3C//DTD SVG 1.1//EN" "http://www.w3.org/Graphics/SVG/1.1/DTD/svg11.dtd">
<svg version="1.1" id="Capa_1" xmlns="http://www.w3.org/2000/svg" xmlns:xlink="http://www.w3.org/1999/xlink" x="0px" y="0px"
	 width="14400px" height="14400px" viewBox="0 0 14400 14400" enable-background="new 0 0 14400 14400" xml:space="preserve">
<g>
	<path d="M3455.673,8425.793c-50.5,0-99.18-17.137-146.04-51.41c-46.861-34.272-88.413-76.584-124.354-127.235
		c-36.094-50.349-65.817-104.488-89.323-162.115c-23.506-57.779-35.031-111.767-35.031-162.418V5418.09
		c0-46.709,11.526-100.09,35.031-159.537c23.506-59.599,53.229-114.497,89.323-164.997c35.941-50.5,77.493-92.811,124.354-127.084
		c46.86-34.273,95.541-51.41,146.04-51.41h3115.83c46.86,0,94.631,17.137,143.462,51.41c48.68,34.273,90.99,76.584,127.083,127.084
		c35.942,50.5,65.666,105.397,89.323,164.997c23.354,59.447,35.032,112.828,35.032,159.537v2504.523
		c0,50.651-11.678,104.639-35.032,162.418c-23.657,57.627-53.381,111.767-89.323,162.115
		c-36.093,50.651-78.404,92.963-127.083,127.235c-48.832,34.273-96.603,51.41-143.462,51.41H3455.673z M6095.47,5672.258H3931.708
		v1990.728H6095.47V5672.258z"/>
	<polygon points="8396.279,6213.335 8396.279,8349.952 8347.599,8425.778 7595.71,8425.778 7525.345,8344.645 7525.345,4963.728 
		7595.71,4915.048 8320.454,4915.048 8412.505,4952.809 10468.141,7111.264 10468.141,4963.728 10543.814,4915.048 
		11268.708,4915.048 11339.075,4963.728 11339.075,8349.952 11290.243,8425.778 10543.814,8425.778 10446.454,8344.645 	"/>
	<g>
		<path d="M3060.925,8991.117c0.335-1.673,1.674-2.677,3.348-2.677h759.263c2.009,0.334,2.678,1.338,2.678,2.677v423.489
			c0,1.673-0.669,2.676-2.678,2.676h-567.104v241.371c0,1.673-1.005,2.68-3.013,2.68h-189.146c-2.009,0-3.348-1.007-3.348-2.68
			V8991.117z M3631.712,9233.829v-61.933h-374.61v61.933H3631.712z"/>
		<path d="M3946.452,8991.117c0.334-1.673,1.674-2.677,3.348-2.677h758.929c2.008,0.334,3.012,1.338,3.012,2.677v423.489
			c0,1.673-1.004,2.676-3.012,2.676h-247.732v2.011c161.695,97.753,245.388,149.643,250.744,154.664v84.696
			c0,1.673-1.004,2.68-3.012,2.68H4522.26c-3.013,0-72.645-43.522-209.232-130.898c-109.805-70.971-167.052-107.127-171.403-108.465
			v236.684c0,1.673-1.004,2.68-3.013,2.68H3949.8c-2.009,0-3.348-1.007-3.348-2.68V8991.117z M4516.234,9233.829v-61.933H4141.29
			v61.933H4516.234z"/>
		<path d="M5594.135,8988.44c2.008,0.334,3.012,1.338,3.012,3.348v666.865c0,1.673-1.004,2.68-3.012,2.68h-758.929
			c-2.009,0-3.348-1.007-3.348-2.68v-666.865c0.334-2.344,1.673-3.348,3.348-3.348H5594.135z M5402.31,9477.876v-305.647h-375.28
			v305.647H5402.31z"/>
		<path d="M6479.94,8988.507c1.674,0.334,2.678,1.338,2.678,2.677v667.202c0,2.007-1.004,3.011-2.678,3.011h-189.481
			c-2.009,0-2.679-1.004-2.679-3.011v-484.418h-91.058v484.418c0,2.007-1.004,3.011-3.013,3.011h-189.146
			c-1.674,0-2.679-1.004-2.679-3.011v-484.418h-89.384v484.418c0,2.007-1.003,3.011-3.012,3.011h-188.812
			c-2.008,0-3.348-1.004-3.348-3.011v-667.202c0.335-1.673,1.674-2.677,3.348-2.677H6479.94z"/>
		<path d="M7364.889,8988.44c2.343,0.334,3.348,1.338,3.348,3.348v666.865c0,1.673-1.005,2.68-3.348,2.68h-758.593
			c-2.343,0-3.348-1.007-3.348-2.68v-666.865c0.334-2.344,1.339-3.348,3.348-3.348H7364.889z M7173.399,9477.876v-305.647h-375.28
			v305.647H7173.399z"/>
		<path d="M7763.856,9172.229h-272.044c-2.343,0-3.349-1.006-3.349-2.679v-178.364c0.336-1.675,1.34-2.679,16.679-2.679h745.374
			c2.957,0,3.014,1.338,3.014,2.679v178.364c0,1.673-1.005,2.679-3.014,2.679H7978.11v486.157c0,2.01-1.005,3.014-3.348,3.014
			h-207.559c-2.343,0-3.347-1.004-3.347-3.014V9172.229z"/>
		<path d="M8581.619,8988.507c2.344,0.334,3.347,1.338,3.347,2.677v667.202c0,2.007-1.003,3.011-3.347,3.011h-204.546
			c-2.344,0-3.349-1.004-3.349-3.011v-667.202c0.335-1.673,1.34-2.677,3.349-2.677H8581.619z"/>
		<path d="M9499.683,8988.44c2.344,0.334,3.349,1.338,3.349,3.348v666.865c0,1.673-1.005,2.68-3.349,2.68h-791.066
			c-2.344,0-3.347-1.007-3.347-2.68v-666.865c0.334-2.344,1.338-3.348,3.347-3.348H9499.683z M9299.823,9477.876v-305.647h-391.348
			v305.647H9299.823z"/>
		<path d="M10417.715,8988.507c2.343,0.334,3.347,1.338,3.347,3.346v666.533c0,2.007-1.004,3.011-3.347,3.011h-196.847
			c-2.009,0-3.013-1.004-3.013-3.011v-484.418h-391.35v484.418c0,2.007-1.004,3.011-2.678,3.011h-197.182
			c-2.343,0-3.347-1.004-3.347-3.011v-666.533c0.335-2.342,1.338-3.346,3.347-3.346H10417.715z"/>
		<path d="M11335.728,8988.507c2.344,0.334,3.348,1.338,3.348,2.677v178.098c0,1.676-1.004,2.68-3.348,2.68h-591.208v59.924h591.208
			c2.344,0.335,3.348,1.673,3.348,3.349v423.152c0,2.007-1.004,3.011-3.348,3.011h-791.067c-2.344,0-3.348-1.004-3.348-3.011
			v-177.767c0.335-1.673,1.339-2.677,3.348-2.677h591.209v-60.594h-591.209c-2.344,0-3.348-1.003-3.348-2.679v-423.486
			c0.335-1.673,1.339-2.677,3.348-2.677H11335.728z"/>
	</g>
</g>
</svg>
